# xmcd
# 
# Track frame offsets:
#     150
#     14676
#     27436
#     39950
#     54628
#     65483
#     80955
#     100831
#     115792
#     128801
#     144997
#     161928
#     185890
#     209628
# 
# Disc length: 3013
# 
# Revision: 0
# Processed by: cddbd v1.5.2PL0 Copyright (c) Steve Scherf et al.
# Submitted via: fre:ac v1.1beta1pre4
# 
DISCID=d30bc30e
DTITLE=Peter Yarrow - Never Give Up :Inside the Heart of Peter Yarrow
DYEAR=2013
DGENRE=Folk
TTITLE0=Never Give Up
TTITLE1=Light One Candle
TTITLE2=Dona Dona Dona
TTITLE3=Music Speaks Louder Than Words
TTITLE4=Weave Me The Sunshine
TTITLE5=Don't Laugh At Me
TTITLE6=Sweet Survivor
TTITLE7=Beautiful City
TTITLE8=River Of Jordan
TTITLE9=Take Off Your Mask
TTITLE10=Greenwood
TTITLE11=The Water Is Wide
TTITLE12=All My Trials
TTITLE13=Blowin' In The Wind
EXTD=
EXTT0=
EXTT1=
EXTT2=
EXTT3=
EXTT4=
EXTT5=
EXTT6=
EXTT7=
EXTT8=
EXTT9=
EXTT10=
EXTT11=
EXTT12=
EXTT13=
PLAYORDER=
